# xmcd
#
# Track frame offsets:
#	150
#	23644
#	41904
#	61116
#	74881
#	88584
#	106170
#	126037
#	149268
#	165360
#	181247
#	201249
#	226874
#	241856
#	258802
#	273037
#
# Disc length: 4150 seconds
#
# Revision: 1
# Processed by: cddbd v1.5.2PL0 Copyright (c) Steve Scherf et al.
# Submitted via: audiograbber 1.82.02
#
DISCID=d1103410
DTITLE=Javier Batiz - Sesiones del brujo 2
DYEAR=1900
DGENRE=
TTITLE0=hard life
TTITLE1=born under bad sign
TTITLE2=love you girl
TTITLE3=my man
TTITLE4=my man ii
TTITLE5=my only love
TTITLE6=never let you go
TTITLE7=place in the sun
TTITLE8=rocking with the king
TTITLE9=rocking with the king ii
TTITLE10=threse`s something in your mind
TTITLE11=texas
TTITLE12=thats o` right
TTITLE13=thats o` right ii
TTITLE14=all around the world
TTITLE15=baby
EXTD=
EXTT0=
EXTT1=
EXTT2=
EXTT3=
EXTT4=
EXTT5=
EXTT6=
EXTT7=
EXTT8=
EXTT9=
EXTT10=
EXTT11=
EXTT12=
EXTT13=
EXTT14=
EXTT15=
PLAYORDER=
